<svg width="25" height="24" viewBox="0 0 25 24" fill="none" xmlns="http://www.w3.org/2000/svg">
<path d="M6.31765 24L7.8 19.6235L9.38824 14.9647L10.8645 10.5529L11.3488 9.10588L12.4235 5.89412H6.86063L0 24H6.31765Z" fill="#0A0A0A"/>
<path d="M9.38824 14.9647L7.8 19.6235H12.4235H17.0471L15.4941 14.9647H12.4412H9.38824Z" fill="#0A0A0A"/>
<path d="M18.3665 5.89412L19.5286 9.10588L20.0522 10.5529H20.0824H22.1082L24.9529 5.89412H18.3665Z" fill="#0A0A0A"/>
<path d="M18.3665 5.89412L17.8685 4.51765L16.2339 0H10.2717L12.4235 5.89412H15.4765H18.3665Z" fill="#0A0A0A"/>
<path d="M19.5286 9.10588L18.3665 5.89412H15.4765H12.4235L13.5108 9.10588L14.0006 10.5529H15.4588H20.0522L19.5286 9.10588Z" fill="#0A0A0A"/>
<path d="M18.5294 24H24.9177L23.3341 19.6235H17.0471L18.5294 24Z" fill="#0A0A0A"/>
<path d="M15.4941 14.9647L17.0471 19.6235H23.3341L22.1082 16.2353L21.6485 14.9647H15.4941Z" fill="#0A0A0A"/>
</svg>
